<?xml version="1.0" encoding="UTF-8" standalone="no"?>
<!DOCTYPE svg PUBLIC "-//W3C//DTD SVG 1.1//EN" "http://www.w3.org/Graphics/SVG/1.1/DTD/svg11.dtd">
<svg width="100%" height="100%" viewBox="0 0 1024 768" version="1.1" xmlns="http://www.w3.org/2000/svg" xmlns:xlink="http://www.w3.org/1999/xlink" xml:space="preserve" xmlns:serif="http://www.serif.com/" style="fill-rule:evenodd;clip-rule:evenodd;stroke-linejoin:round;stroke-miterlimit:2;">
    <g id="Waves" transform="matrix(0.38032,0,0,0.38032,83.3363,-73.4071)">
        <g transform="matrix(6.12323e-17,-1,1.00334,6.14366e-17,-686.201,1733.77)">
            <path d="M531.079,805.487C480.372,975.943 425.232,1194.25 420.91,1440.09C416.459,1693.31 464.235,1847.04 483.77,1995.18C441.421,1995.72 340.128,1810.13 333.197,1442.85C326.217,1072.91 460.882,856.839 531.079,805.487Z" style="fill:rgb(146,169,216);"/>
            <path d="M532.339,805.86C481.661,976.222 426.544,1194.4 422.225,1440.11C417.775,1693.24 465.545,1846.92 485.073,1995.01C485.122,1995.38 485.009,1995.75 484.764,1996.04C484.518,1996.32 484.162,1996.49 483.787,1996.49C478.468,1996.56 472.23,1993.89 465.412,1988.36C455.553,1980.35 444.349,1966.3 432.741,1946.18C387.941,1868.57 336.74,1700.3 331.883,1442.88C324.89,1072.28 459.979,855.874 530.301,804.431C530.756,804.098 531.374,804.092 531.835,804.416C532.297,804.739 532.5,805.321 532.339,805.86ZM528.681,808.946C457.815,864.269 327.648,1079.05 334.512,1442.83C339.357,1699.6 390.334,1867.46 435.02,1944.88C446.421,1964.63 457.389,1978.46 467.073,1986.33C472.658,1990.86 477.767,1993.39 482.262,1993.81C462.594,1846.09 415.158,1692.5 419.596,1440.07C423.887,1195.93 478.263,978.929 528.681,808.946Z" style="fill:rgb(146,169,216);"/>
        </g>
        <g transform="matrix(1.66857e-17,1,0.636249,-8.35057e-17,737.51,757.796)">
            <path d="M607.453,517.529C600.012,649.904 514.537,1136.01 516.758,1431.15C518.628,1679.51 524.497,1921.23 529.951,2082.89C528.697,2075.99 524.502,2068.27 523.526,2061.57C482.97,1783.14 478.311,1680.75 475.332,1422.38C473.873,1295.85 477.057,1049.32 492.204,908.646C520.29,647.8 578.423,515.684 607.453,517.529Z" style="fill:rgb(146,169,216);"/>
            <path d="M607.506,515.465C603.82,515.23 599.682,516.991 595.216,520.83C588.775,526.368 581.595,536.279 574.053,550.578C545.154,605.374 510.623,725.196 490.908,908.301C475.749,1049.08 472.558,1295.79 474.017,1422.41C476.998,1680.96 481.661,1783.42 522.244,2062.03C522.758,2065.55 524.097,2069.36 525.494,2073.18C526.766,2076.66 528.086,2080.16 528.687,2083.46C528.871,2084.47 529.508,2085.11 530.168,2084.93C530.828,2084.76 531.3,2083.84 531.264,2082.78C525.811,1921.14 519.942,1679.46 518.073,1431.12C515.852,1136.05 601.323,650.057 608.763,517.711C608.795,517.148 608.678,516.589 608.441,516.165C608.203,515.741 607.866,515.487 607.506,515.465ZM606.011,519.614C597.742,655.214 513.234,1137.63 515.444,1431.17C517.273,1674.27 522.935,1910.99 528.288,2072.53L527.774,2071.12C526.516,2067.68 525.27,2064.28 524.807,2061.11C484.278,1782.86 479.623,1680.54 476.646,1422.34C475.189,1295.9 478.364,1049.56 493.5,908.99C513.105,726.912 547.34,607.704 576.077,553.216C583.357,539.413 590.261,529.801 596.478,524.456C599.9,521.514 603.095,519.879 606.011,519.614Z" style="fill:rgb(146,169,216);"/>
        </g>
        <g transform="matrix(-6.6497e-17,-1.45574,1.68311,-1.25702e-16,-1691.69,3126.32)">
            <path d="M1174.31,1313.7C1154.29,1381.38 1141.22,1422.56 1151.56,1491.6C1156.55,1524.95 1168.51,1589.38 1185.3,1652.58C1195.05,1689.3 1206.17,1723.88 1213.49,1751.52C1218.18,1769.26 1221.59,1785.19 1221.11,1793.5C1216.39,1793.18 1195.45,1777.54 1182.21,1747.77C1169.75,1719.75 1163.66,1677.86 1154.69,1644.3C1138.41,1583.38 1141.86,1534.96 1139.11,1490.82C1134.73,1420.61 1159.45,1328.79 1174.31,1313.7Z" style="fill:rgb(146,169,216);"/>
        </g>
        <g transform="matrix(1.66857e-17,1,0.636249,-8.35057e-17,807.015,824.017)">
            <path d="M607.453,517.529C600.012,649.904 514.537,1136.01 516.758,1431.15C518.628,1679.51 524.497,1921.23 529.951,2082.89C528.697,2075.99 524.502,2068.27 523.526,2061.57C482.97,1783.14 478.311,1680.75 475.332,1422.38C473.873,1295.85 494.794,1062.51 509.941,921.836C538.027,660.991 578.423,515.684 607.453,517.529Z" style="fill:rgb(146,169,216);"/>
            <path d="M607.506,515.465C603.776,515.228 599.859,517.207 595.822,521.45C590.052,527.513 583.979,538.286 577.786,553.64C554.133,612.285 528.347,738.512 508.645,921.491C493.486,1062.28 472.557,1295.79 474.017,1422.41C476.998,1680.96 481.661,1783.42 522.244,2062.03C522.758,2065.55 524.097,2069.36 525.494,2073.18C526.766,2076.66 528.086,2080.16 528.687,2083.46C528.871,2084.47 529.508,2085.11 530.168,2084.93C530.828,2084.76 531.3,2083.84 531.264,2082.78C525.811,1921.14 519.942,1679.46 518.073,1431.12C515.852,1136.05 601.323,650.057 608.763,517.711C608.795,517.148 608.678,516.589 608.441,516.165C608.203,515.741 607.866,515.487 607.506,515.465ZM606.01,519.628C597.737,655.247 513.234,1137.64 515.444,1431.17C517.273,1674.27 522.935,1910.99 528.288,2072.53L527.774,2071.12C526.516,2067.68 525.27,2064.28 524.807,2061.11C484.278,1782.86 479.623,1680.54 476.646,1422.34C475.189,1295.91 496.102,1062.75 511.237,922.181C530.856,739.977 556.454,614.249 580.007,555.852C585.953,541.11 591.743,530.707 597.283,524.885C600.287,521.728 603.2,519.943 606.01,519.628Z" style="fill:rgb(146,169,216);"/>
        </g>
    </g>
    <g transform="matrix(1.43671,0,0,1.43671,-452.242,-32.4912)">
        <text x="320.723px" y="279.698px" style="font-family:'TimesNewRomanPS-BoldMT', 'Times New Roman', serif;font-weight:700;font-size:184.436px;fill:rgb(18,37,110);">C</text>
        <text x="453.916px" y="279.698px" style="font-family:'TimesNewRomanPS-BoldMT', 'Times New Roman', serif;font-weight:700;font-size:127.174px;fill:rgb(18,37,110);">LOSINGS</text>
    </g>
</svg>
