<?xml version="1.0" encoding="utf-8"?>
<!-- Generator: Adobe Illustrator 27.4.0, SVG Export Plug-In . SVG Version: 6.00 Build 0)  -->
<svg version="1.1" id="Layer_1" xmlns="http://www.w3.org/2000/svg" xmlns:xlink="http://www.w3.org/1999/xlink" x="0px" y="0px"
	 viewBox="0 0 150 36" style="enable-background:new 0 0 150 36;" xml:space="preserve">
<style type="text/css">
	.st0{fill:#58C8DF;}
</style>
<g>
	<g>
		<g>
			<path d="M0.1,11.2c0-1-0.1-3.1-0.1-3.8h1.7c0,1,0.1,2.1,0.1,2.4H2c0.7-1.5,2.4-2.7,4.6-2.7c1.8,0,3.4,0.9,4,2.9
				c0.8-2,2.7-2.9,4.6-2.9c4.2,0,5.1,2.9,5.1,5.8v8h-1.7v-7.9c0-2.2-0.6-4.3-3.4-4.3c-3.2,0-4.1,2.7-4.1,4.7v7.6H9.3v-8.1
				c0-2.5-0.9-4.1-2.8-4.1c-2.6,0-4.7,1.8-4.7,5.5v6.7H0.1V11.2z"/>
			<path d="M34.2,15.2c0,2.6,0.1,4.1,0.3,5.6h-1.6c-0.1-0.7-0.2-1.4-0.2-2.2h-0.1c-1,1.7-2.4,2.5-4.7,2.5c-2.3,0-4.7-1.1-4.7-4
				c0-4.1,4.8-4.5,7.5-4.5h2v-0.8c0-2.3-1.6-3.3-3.8-3.3c-1.6,0-2.9,0.5-4.1,1.5l-1-1.2c1.3-1.2,3.4-1.9,5.1-1.9
				c3.3,0,5.4,1.5,5.4,4.9V15.2z M30.7,14.1c-2.9,0-5.8,0.7-5.8,3c0,1.7,1.6,2.5,3.1,2.5c3.7,0,4.7-2.4,4.7-4.6v-0.9H30.7z"/>
			<path d="M42.1,25c-0.7,1.7-1.8,2.8-3.7,2.8c-0.6,0-1.2-0.1-1.7-0.3l0.2-1.6c0.5,0.1,1,0.3,1.6,0.3c1.3,0,1.8-1.2,2.2-2.2l1.2-3.1
				L36.4,7.4h2l4.5,11.3l4.3-11.3H49L42.1,25z"/>
			<path d="M59.1,9h-3.8v8.8c0,1.2,0.7,1.9,1.9,1.9c0.7,0,1.4-0.2,2-0.5l0.1,1.6c-0.6,0.2-1.6,0.5-2.3,0.5c-2.5,0-3.5-1.5-3.5-3.5V9
				h-2.9V7.4h2.9V3.5h1.7v3.9h3.8V9z"/>
			<path d="M62.8,11.2c0-1-0.1-3.1-0.1-3.8h1.7c0,1,0.1,2.1,0.1,2.4c0.9-1.6,2.3-2.7,4.3-2.7c0.3,0,0.7,0.1,1,0.1l-0.2,1.7
				c-0.3-0.1-0.5-0.1-0.7-0.1c-3,0-4.4,2.1-4.4,4.7v7.3h-1.7V11.2z"/>
			<path d="M99.3,11.2c0-1-0.1-3.1-0.1-3.8h1.7c0,1,0.1,2.1,0.1,2.4h0.1c0.7-1.5,2.4-2.7,4.6-2.7c4.2,0,5.1,2.9,5.1,5.8v8H109v-7.9
				c0-2.2-0.6-4.3-3.4-4.3c-2.6,0-4.7,1.8-4.7,5.5v6.7h-1.7V11.2z"/>
			<path d="M114.9,0.8c0.7,0,1.3,0.6,1.3,1.3c0,0.7-0.6,1.3-1.3,1.3c-0.7,0-1.3-0.6-1.3-1.3C113.6,1.4,114.1,0.8,114.9,0.8z
				 M114,7.4h1.7v13.5H114V7.4z"/>
			<path d="M130.8,18.9c-1.3,1.6-3,2.3-4.9,2.3c-4.1,0-7.1-3-7.1-7.1s2.9-7.1,7.1-7.1c2,0,3.7,0.8,5,2.3l-1.4,1
				c-1-1.1-2.2-1.8-3.6-1.8c-3.3,0-5.3,2.5-5.3,5.5s2,5.5,5.3,5.5c1.5,0,2.7-0.8,3.6-1.9L130.8,18.9z"/>
			<path d="M134.1,17.4c0.7,1.4,2.3,2.2,3.9,2.2c1.5,0,3.1-0.9,3.1-2.5c0-3.7-8-1.1-8-6.2c0-2.6,2.4-3.9,4.6-3.9
				c2.2,0,3.9,0.8,4.7,2.5l-1.6,0.9c-0.7-1.2-1.6-1.9-3.2-1.9c-1.3,0-2.9,0.8-2.9,2.2c0,3.6,8,0.8,8,6.3c0,2.8-2.3,4.2-4.9,4.2
				c-2.3,0-4.4-0.9-5.4-2.7L134.1,17.4z"/>
		</g>
		<path d="M83,6.9L83,6.9L83,6.9L83,6.9c-7.3,0-13.3,6.5-13.3,14.4c0.7,0.2,1.4,0.5,2.1,0.9c0.8,0.4,1.6,0.9,2.2,1.2
			c-0.1-0.6-0.2-1.3-0.2-2c0-5.5,4.1-10,9.2-10c5.1,0,9.2,4.5,9.2,10c0,0.7-0.1,2-0.3,2.6c1.9-0.4,3.8-1.9,4.4-2.7
			C96.2,13.4,90.3,7,83,6.9z"/>
		<path class="st0" d="M95.3,24.6c-2.5,2.3-6.7,4.6-12.1,4.2c-2.6-0.2-5.2-1-7.5-2.2c-0.5-0.3-1.2-0.7-1.6-0.9
			c-0.3-0.2-0.7-0.5-1-0.7c-0.7-0.4-1.4-0.8-2.1-1.1c-2.9-1.4-6.2-1.9-9.3-1.5c-6.1,0.7-10.6,4-10.9,4.2c0,0,0,0,0,0
			c0.2-0.1,4.7-2.1,10.2-1.6c2.8,0.3,5.6,1.3,7.9,3.1c0.6,0.4,1.2,0.9,1.7,1.4c0.3,0.2,0.5,0.5,0.8,0.8c0.3,0.3,0.8,0.7,1.2,1.1
			c1.8,1.5,3.9,2.7,6.2,3.3c4.7,1.3,8.8,0.1,11.3-1.4c2.6-1.6,4.1-3.5,5-5c1.7-3.1,1.4-5,1.4-5c0,0,0,0,0,0
			C96.2,23.7,95.8,24.2,95.3,24.6z"/>
		<path d="M83,6.9L83,6.9L83,6.9L83,6.9c-7.3,0-13.3,6.5-13.3,14.4c0.7,0.2,1.4,0.5,2.1,0.9c0.8,0.4,1.6,0.9,2.2,1.2
			c-0.1-0.6-0.2-1.3-0.2-2c0-5.5,4.1-10,9.2-10c5.1,0,9.2,4.5,9.2,10c0,0.7-0.1,2-0.3,2.6c1.9-0.4,3.8-1.9,4.4-2.7
			C96.2,13.4,90.3,6.9,83,6.9z"/>
	</g>
	<g>
		<polygon points="144.6,7.1 144.6,7.6 145.3,7.6 145.3,10.2 145.9,10.2 145.9,7.6 146.6,7.6 146.6,7.1 		"/>
		<polygon points="149,7.1 148.5,9.2 148.5,9.2 148,7.1 146.9,7.1 146.9,10.2 147.6,10.2 147.6,7.8 147.6,7.8 148.1,10.2 
			148.8,10.2 149.4,7.8 149.4,7.8 149.4,10.2 150,10.2 150,7.1 		"/>
	</g>
</g>
</svg>
