<?xml version="1.0" encoding="UTF-8" standalone="no"?>
<!DOCTYPE svg PUBLIC "-//W3C//DTD SVG 1.1//EN" "http://www.w3.org/Graphics/SVG/1.1/DTD/svg11.dtd">
<svg width="100%" height="100%" viewBox="0 0 2048 1536" version="1.1" xmlns="http://www.w3.org/2000/svg" xmlns:xlink="http://www.w3.org/1999/xlink" xml:space="preserve" xmlns:serif="http://www.serif.com/" style="fill-rule:evenodd;clip-rule:evenodd;stroke-linejoin:round;stroke-miterlimit:2;">
    <g id="Waves" transform="matrix(0.696916,0,0,0.696916,238.497,-70.1742)">
        <g transform="matrix(6.12323e-17,-1,1.00334,6.14366e-17,-686.201,1733.77)">
            <path d="M531.079,805.487C480.372,975.943 425.232,1194.25 420.91,1440.09C416.459,1693.31 464.235,1847.04 483.77,1995.18C441.421,1995.72 340.128,1810.13 333.197,1442.85C326.217,1072.91 460.882,856.839 531.079,805.487Z" style="fill:rgb(146,169,216);"/>
            <path d="M532.455,805.894C481.778,976.247 426.664,1194.42 422.345,1440.12C417.895,1693.24 465.665,1846.91 485.192,1994.99C485.246,1995.4 485.123,1995.81 484.854,1996.12C484.586,1996.42 484.198,1996.6 483.788,1996.61C478.448,1996.68 472.182,1994.01 465.337,1988.45C455.469,1980.44 444.255,1966.37 432.636,1946.24C387.832,1868.62 336.621,1700.33 331.763,1442.88C324.769,1072.22 459.896,855.786 530.23,804.335C530.727,803.971 531.4,803.964 531.904,804.318C532.408,804.671 532.63,805.305 532.455,805.894ZM528.459,809.272C457.539,864.95 327.779,1079.61 334.632,1442.83C339.476,1699.56 390.443,1867.41 435.124,1944.82C446.516,1964.55 457.473,1978.38 467.149,1986.23C472.649,1990.7 477.683,1993.22 482.123,1993.67C462.442,1846 415.039,1692.42 419.475,1440.07C423.764,1196.09 478.068,979.21 528.459,809.272Z" style="fill:rgb(146,169,216);"/>
        </g>
        <g transform="matrix(1.66857e-17,1,0.636249,-8.35057e-17,737.51,757.796)">
            <path d="M607.453,517.529C600.012,649.904 514.537,1136.01 516.758,1431.15C518.628,1679.51 524.497,1921.23 529.951,2082.89C528.697,2075.99 524.502,2068.27 523.526,2061.57C482.97,1783.14 478.311,1680.75 475.332,1422.38C473.873,1295.85 477.057,1049.32 492.204,908.646C520.29,647.8 578.423,515.684 607.453,517.529Z" style="fill:rgb(146,169,216);"/>
            <path d="M607.511,515.276C603.806,515.04 599.647,516.806 595.159,520.664C588.707,526.211 581.514,536.135 573.961,550.458C545.054,605.268 510.51,725.117 490.789,908.269C475.63,1049.06 472.437,1295.79 473.897,1422.42C476.878,1680.98 481.542,1783.44 522.127,2062.07C522.643,2065.61 523.987,2069.44 525.39,2073.28C526.657,2076.74 527.973,2080.22 528.572,2083.51C528.772,2084.62 529.468,2085.31 530.188,2085.12C530.908,2084.93 531.423,2083.92 531.384,2082.78C525.931,1921.13 520.062,1679.45 518.193,1431.12C515.972,1136.06 601.443,650.071 608.883,517.728C608.917,517.113 608.79,516.504 608.531,516.04C608.272,515.577 607.903,515.301 607.511,515.276ZM605.878,519.817C597.532,655.719 513.115,1137.78 515.323,1431.17C517.15,1673.87 522.796,1910.22 528.142,2071.75L527.878,2071.03C526.626,2067.61 525.384,2064.22 524.924,2061.06C484.398,1782.84 479.743,1680.52 476.767,1422.34C475.309,1295.91 478.484,1049.59 493.619,909.022C513.219,726.991 547.44,607.811 576.17,553.336C583.437,539.557 590.329,529.958 596.536,524.622C599.885,521.742 603.015,520.118 605.878,519.817Z" style="fill:rgb(146,169,216);"/>
        </g>
        <g transform="matrix(-6.6497e-17,-1.45574,1.68311,-1.25702e-16,-1691.69,3126.32)">
            <path d="M1174.31,1313.7C1154.29,1381.38 1141.22,1422.56 1151.56,1491.6C1156.55,1524.95 1168.51,1589.38 1185.3,1652.58C1195.05,1689.3 1206.17,1723.88 1213.49,1751.52C1218.18,1769.26 1221.59,1785.19 1221.11,1793.5C1216.39,1793.18 1195.45,1777.54 1182.21,1747.77C1169.75,1719.75 1163.66,1677.86 1154.69,1644.3C1138.41,1583.38 1141.86,1534.96 1139.11,1490.82C1134.73,1420.61 1159.45,1328.79 1174.31,1313.7Z" style="fill:rgb(146,169,216);"/>
        </g>
        <g transform="matrix(1.66857e-17,1,0.636249,-8.35057e-17,807.015,824.017)">
            <path d="M607.453,517.529C600.012,649.904 514.537,1136.01 516.758,1431.15C518.628,1679.51 524.497,1921.23 529.951,2082.89C528.697,2075.99 524.502,2068.27 523.526,2061.57C482.97,1783.14 478.311,1680.75 475.332,1422.38C473.873,1295.85 494.794,1062.51 509.941,921.836C538.027,660.991 578.423,515.684 607.453,517.529Z" style="fill:rgb(146,169,216);"/>
            <path d="M607.511,515.276C603.758,515.037 599.817,517.024 595.755,521.293C589.974,527.367 583.888,538.157 577.685,553.539C554.027,612.195 528.232,738.445 508.526,921.46C493.367,1062.25 472.437,1295.78 473.897,1422.42C476.878,1680.98 481.542,1783.44 522.127,2062.07C522.643,2065.61 523.987,2069.44 525.39,2073.28C526.657,2076.74 527.973,2080.22 528.572,2083.51C528.772,2084.62 529.468,2085.31 530.188,2085.12C530.908,2084.93 531.423,2083.92 531.384,2082.78C525.931,1921.13 520.062,1679.45 518.193,1431.12C515.972,1136.06 601.443,650.071 608.883,517.728C608.917,517.113 608.79,516.504 608.531,516.04C608.272,515.577 607.903,515.301 607.511,515.276ZM605.877,519.834C597.525,655.759 513.115,1137.8 515.323,1431.17C517.15,1673.87 522.796,1910.22 528.142,2071.75L527.878,2071.03C526.626,2067.61 525.384,2064.22 524.924,2061.06C484.398,1782.84 479.743,1680.52 476.767,1422.34C475.309,1295.91 496.221,1062.77 511.356,922.212C530.971,740.044 556.56,614.338 580.108,555.954C586.043,541.239 591.82,530.853 597.35,525.042C600.284,521.959 603.129,520.189 605.877,519.834Z" style="fill:rgb(146,169,216);"/>
        </g>
    </g>
    <g transform="matrix(1.38942,0,0,1.39915,-181.106,362.858)">
        <text x="320.723px" y="279.698px" style="font-family:'TimesNewRomanPS-BoldMT', 'Times New Roman', serif;font-weight:700;font-size:178.679px;fill:rgb(18,37,110);">V</text>
        <text x="449.759px" y="279.698px" style="font-family:'TimesNewRomanPS-BoldMT', 'Times New Roman', serif;font-weight:700;font-size:123.204px;fill:rgb(18,37,110);">ACUUM</text>
        <text x="966.613px" y="279.698px" style="font-family:'TimesNewRomanPS-BoldMT', 'Times New Roman', serif;font-weight:700;font-size:178.679px;fill:rgb(18,37,110);">C</text>
        <text x="1095.65px" y="279.698px" style="font-family:'TimesNewRomanPS-BoldMT', 'Times New Roman', serif;font-weight:700;font-size:123.204px;fill:rgb(18,37,110);">ALLS</text>
    </g>
</svg>
